HIERARCHY
ROOT SimulationBone
{
	OFFSET 0.000000 0.000000 0.000000
	CHANNELS 6 Xposition Yposition Zposition Zrotation Yrotation Xrotation 
	JOINT Hips
	{
		OFFSET 0.000000 0.000000 0.000000
		CHANNELS 6 Xposition Yposition Zposition Zrotation Yrotation Xrotation 
		JOINT RightUpLeg
		{
			OFFSET 0.103459 1.857839 10.548500
			CHANNELS 3 Zrotation Yrotation Xrotation
			JOINT RightLeg
			{
				OFFSET 43.500004 -0.000053 -0.000011
				CHANNELS 3 Zrotation Yrotation Xrotation
				JOINT RightFoot
				{
					OFFSET 42.372192 0.000015 -0.000008
					CHANNELS 3 Zrotation Yrotation Xrotation
					JOINT RightToe
					{
						OFFSET 17.300007 0.000002 0.000013
						CHANNELS 3 Zrotation Yrotation Xrotation
						End Site
						{
							OFFSET 0.000000 0.000000 0.000000
						}
					}
				}
			}
		}
		JOINT LeftUpLeg
		{
			OFFSET 0.103460 1.857826 -10.548500
			CHANNELS 3 Zrotation Yrotation Xrotation
			JOINT LeftLeg
			{
				OFFSET 43.500046 -0.000019 0.000011
				CHANNELS 3 Zrotation Yrotation Xrotation
				JOINT LeftFoot
				{
					OFFSET 42.372261 0.000004 0.000012
					CHANNELS 3 Zrotation Yrotation Xrotation
					JOINT LeftToe
					{
						OFFSET 17.299995 -0.000004 0.000006
						CHANNELS 3 Zrotation Yrotation Xrotation
						End Site
						{
							OFFSET 0.000000 0.000000 0.000000
						}
					}
				}
			}
		}
		JOINT Spine
		{
			OFFSET 6.901963 -2.603745 -0.000005
			CHANNELS 3 Zrotation Yrotation Xrotation
			JOINT Spine1
			{
				OFFSET 12.588102 0.000012 0.000012
				CHANNELS 3 Zrotation Yrotation Xrotation
				JOINT Spine2
				{
					OFFSET 12.343202 0.000010 -0.000009
					CHANNELS 3 Zrotation Yrotation Xrotation
					JOINT Neck
					{
						OFFSET 25.832901 -0.000008 0.000006
						CHANNELS 3 Zrotation Yrotation Xrotation
						JOINT Head
						{
							OFFSET 11.766603 0.000007 -0.000001
							CHANNELS 3 Zrotation Yrotation Xrotation
							End Site
							{
								OFFSET 0.000000 0.000000 0.000000
							}
						}
					}
					JOINT RightShoulder
					{
						OFFSET 19.745903 -1.480391 6.000108
						CHANNELS 3 Zrotation Yrotation Xrotation
						JOINT RightArm
						{
							OFFSET 11.284125 -0.000031 -0.000021
							CHANNELS 3 Zrotation Yrotation Xrotation
							JOINT RightForeArm
							{
								OFFSET 33.000046 0.000024 0.000034
								CHANNELS 3 Zrotation Yrotation Xrotation
								JOINT RightHand
								{
									OFFSET 25.200014 0.000020 0.000007
									CHANNELS 3 Zrotation Yrotation Xrotation
									End Site
									{
										OFFSET 0.000000 0.000000 0.000000
									}
								}
							}
						}
					}
					JOINT LeftShoulder
					{
						OFFSET 19.746098 -1.480371 -6.000075
						CHANNELS 3 Zrotation Yrotation Xrotation
						JOINT LeftArm
						{
							OFFSET 11.284128 -0.000021 -0.000009
							CHANNELS 3 Zrotation Yrotation Xrotation
							JOINT LeftForeArm
							{
								OFFSET 33.000095 0.000034 0.000006
								CHANNELS 3 Zrotation Yrotation Xrotation
								JOINT LeftHand
								{
									OFFSET 25.199781 0.000147 0.000427
									CHANNELS 3 Zrotation Yrotation Xrotation
									End Site
									{
										OFFSET 0.000000 0.000000 0.000000
									}
								}
							}
						}
					}
				}
			}
		}
	}
}
MOTION
Frames: 6
Frame Time: 0.033333
73.976432 0.000000 -347.898773 180.000000 -3.755939 180.000000 -2.294958 86.654839 -0.123470 87.162173 -1.008603 174.723591 147.895042 3.610702 174.107451 -35.236089 1.909434 -4.972744 82.758131 3.972429 2.271372 21.454560 0.003106 0.000017 178.929701 8.119003 -166.430919 -55.426077 -2.707987 -2.354854 67.024503 4.353848 6.989225 21.454550 -0.003092 0.000001 6.940513 -0.854754 1.435971 3.846854 -1.756129 2.843405 3.529019 -1.739070 2.853947 0.866134 -1.096027 6.966124 -18.700901 0.198329 6.864721 -166.496680 -76.798107 -15.223281 18.090528 59.166295 41.382935 -31.919308 -11.369073 1.059873 10.351781 2.227066 9.632657 -172.409684 83.278912 9.249773 -35.592386 -56.781128 -12.755717 -46.019899 17.007349 -1.759271 5.732293 8.250337 -5.780457 
69.827324 0.000000 -347.847305 180.000000 -3.942140 180.000000 -2.518357 87.456078 -0.401578 87.223981 -1.359079 174.742402 151.163930 4.149903 172.711087 -34.285822 2.370201 -4.156891 85.139899 3.342838 2.333662 21.454558 0.003109 0.000018 173.009197 9.056703 -168.107853 -65.088356 -3.273140 0.115035 63.998347 2.894516 7.189635 21.454539 -0.003094 0.000000 6.915741 -0.911099 1.182403 3.800198 -1.859992 2.334923 3.482182 -1.845997 2.346105 1.325774 -0.641261 7.436984 -17.337160 -0.494083 7.696701 -166.488907 -76.714834 -15.231464 15.462686 58.815968 40.013847 -34.021022 -11.814310 1.133546 9.972882 2.143496 9.324506 -169.547234 82.836644 12.142491 -34.958278 -57.795387 -15.509077 -41.664878 15.724140 -1.549614 6.647860 6.210787 -3.495179 
65.625478 0.000000 -347.832132 180.000000 -4.097656 180.000000 -2.937146 88.371750 -0.620500 86.976249 -1.457355 174.767178 154.567973 4.586197 172.809482 -32.284525 2.459404 -3.994214 86.767779 3.101056 1.912424 21.454558 0.003108 0.000017 166.442462 9.112001 -170.077516 -72.472180 -3.098700 2.225141 67.542245 0.838316 6.435354 21.454555 -0.003093 0.000000 6.803787 -0.886124 0.920252 3.580951 -1.799849 1.813240 3.262843 -1.789005 1.824072 2.284420 -0.272817 7.940001 -16.251679 -1.081819 8.498828 -166.482596 -76.311982 -15.239028 11.861756 58.021378 37.836352 -35.864958 -11.878691 1.179500 9.219095 0.228134 8.636265 -169.430697 82.565232 12.259833 -33.655310 -58.790662 -17.702006 -37.112803 13.520142 -1.288697 7.998166 5.098280 -2.637983 
61.384308 0.000000 -347.846374 180.000000 -4.241681 180.000000 -3.275631 89.354019 -0.683511 86.696912 -1.012447 175.288123 158.450540 4.589097 174.136684 -29.464039 2.258229 -4.039827 87.931329 3.028301 1.484943 21.454558 0.003107 0.000017 160.573909 8.417297 -170.736219 -76.162674 -2.940390 4.122543 70.646484 -0.386032 7.378880 21.454553 -0.003091 -0.000001 6.688533 -0.710388 0.627669 3.356722 -1.438349 1.234880 3.038603 -1.431002 1.243542 3.120327 0.128257 8.383001 -15.157096 -1.560315 9.186122 -166.519288 -75.885116 -15.202746 7.987081 57.499715 35.223637 -37.336997 -12.493270 1.254665 8.739534 -2.028569 7.898481 -168.222355 82.640911 13.482769 -31.172290 -60.341504 -19.835587 -33.161275 11.549944 -1.070808 9.177466 3.247728 -3.017184 
57.095600 0.000000 -347.893442 180.000000 -4.374042 180.000000 -3.577838 90.104172 -0.714079 86.478196 -0.712179 176.082074 162.467101 4.706299 175.655527 -26.459386 2.139940 -4.120155 88.935791 2.989318 1.077525 21.454560 0.003109 0.000018 154.977689 7.763503 -170.658547 -76.476303 -2.974293 5.264010 70.646484 -1.359068 6.920122 21.454545 -0.003094 -0.000002 6.586074 -0.554152 0.383578 3.155776 -1.118328 0.752194 2.837643 -1.113902 0.758932 3.562052 1.098869 8.503260 -13.539871 -2.316881 9.699059 -168.384804 -76.071806 -13.294173 4.563637 57.373487 32.310210 -38.941285 -13.100675 1.334277 8.281631 -3.694473 7.661293 -165.126763 82.325472 16.616894 -26.378395 -61.485937 -24.292615 -30.283949 10.154210 -0.921683 10.998505 1.673394 -2.789734 
52.773737 0.000000 -347.967414 180.000000 -4.487246 180.000000 -3.833738 90.556427 -0.743327 86.149456 -0.473337 176.965766 166.213159 4.691192 176.769804 -23.790741 2.135701 -3.992976 90.103125 2.818361 0.696219 21.454560 0.003107 0.000017 149.897258 7.397797 -170.451346 -74.133616 -2.811068 5.219765 72.167533 -1.303107 7.297658 21.454557 -0.003091 -0.000001 6.466610 -0.399701 0.147630 2.919414 -0.802876 0.285331 2.601300 -0.801275 0.290173 4.448956 1.667033 8.708562 -13.248380 -2.516306 10.072049 -170.097105 -76.532468 -11.544193 1.256111 57.467955 29.492077 -41.024230 -13.898499 1.440961 8.275422 -4.260866 7.836310 -163.936001 82.094434 17.824098 -19.412813 -62.162228 -29.955519 -28.884754 9.282337 -0.838623 11.888214 0.003894 -4.232291 
